<mxfile host="app.diagrams.net" modified="2022-12-23T06:45:01.982Z" agent="5.0 (Windows NT 10.0; Win64; x64) AppleWebKit/537.36 (KHTML, like Gecko) Chrome/108.0.0.0 Safari/537.36 Edg/108.0.1462.54" version="20.7.4" etag="oo7k4rV2NrOppkCM43Ih" type="github">
  <diagram id="oqpae-QzpYTWwJTGfQic" name="Page-1">
    <mxGraphModel dx="1113" dy="637" grid="1" gridSize="10" guides="1" tooltips="1" connect="1" arrows="1" fold="1" page="1" pageScale="1" pageWidth="850" pageHeight="1100" math="0" shadow="0">
      <root>
        <mxCell id="0" />
        <mxCell id="1" parent="0" />
        <mxCell id="lIGNX0l5fL5t18vdJb74-40" value="" style="rounded=0;whiteSpace=wrap;html=1;glass=0;fillColor=none;dashed=1;" vertex="1" parent="1">
          <mxGeometry x="487.13" y="86" width="540" height="270" as="geometry" />
        </mxCell>
        <mxCell id="lIGNX0l5fL5t18vdJb74-1" value="" style="edgeStyle=orthogonalEdgeStyle;rounded=0;orthogonalLoop=1;jettySize=auto;html=1;" edge="1" parent="1" source="lIGNX0l5fL5t18vdJb74-2">
          <mxGeometry relative="1" as="geometry">
            <mxPoint x="253" y="100" as="targetPoint" />
          </mxGeometry>
        </mxCell>
        <mxCell id="lIGNX0l5fL5t18vdJb74-2" value="START" style="ellipse;whiteSpace=wrap;html=1;rounded=0;" vertex="1" parent="1">
          <mxGeometry x="200" width="106" height="40" as="geometry" />
        </mxCell>
        <mxCell id="lIGNX0l5fL5t18vdJb74-3" value="&lt;div&gt;import csv&lt;/div&gt;&lt;div&gt;import numpy as np&lt;/div&gt;" style="rounded=0;whiteSpace=wrap;html=1;glass=0;dashed=1;" vertex="1" parent="1">
          <mxGeometry x="313" y="40" width="127" height="40" as="geometry" />
        </mxCell>
        <mxCell id="lIGNX0l5fL5t18vdJb74-4" value="" style="endArrow=none;dashed=1;html=1;rounded=0;strokeColor=default;entryX=0;entryY=0.5;entryDx=0;entryDy=0;" edge="1" parent="1" target="lIGNX0l5fL5t18vdJb74-3">
          <mxGeometry width="50" height="50" relative="1" as="geometry">
            <mxPoint x="255" y="60" as="sourcePoint" />
            <mxPoint x="465" y="290" as="targetPoint" />
          </mxGeometry>
        </mxCell>
        <mxCell id="lIGNX0l5fL5t18vdJb74-7" value="" style="edgeStyle=orthogonalEdgeStyle;rounded=0;orthogonalLoop=1;jettySize=auto;html=1;" edge="1" parent="1" source="lIGNX0l5fL5t18vdJb74-5" target="lIGNX0l5fL5t18vdJb74-6">
          <mxGeometry relative="1" as="geometry" />
        </mxCell>
        <mxCell id="lIGNX0l5fL5t18vdJb74-5" value="Initialise row_header, row_data, year_range, years to [], sector_indices to [0, 0]" style="rounded=0;whiteSpace=wrap;html=1;" vertex="1" parent="1">
          <mxGeometry x="159.5" y="100" width="187" height="60" as="geometry" />
        </mxCell>
        <mxCell id="lIGNX0l5fL5t18vdJb74-11" value="" style="edgeStyle=orthogonalEdgeStyle;rounded=0;orthogonalLoop=1;jettySize=auto;html=1;" edge="1" parent="1" source="lIGNX0l5fL5t18vdJb74-6" target="lIGNX0l5fL5t18vdJb74-10">
          <mxGeometry relative="1" as="geometry" />
        </mxCell>
        <mxCell id="lIGNX0l5fL5t18vdJb74-6" value="with open(&quot;sgactivedentists_dataset.csv&quot;, &quot;r&quot;) as f" style="rounded=0;whiteSpace=wrap;html=1;" vertex="1" parent="1">
          <mxGeometry x="119.5" y="200" width="267" height="50" as="geometry" />
        </mxCell>
        <mxCell id="lIGNX0l5fL5t18vdJb74-14" value="" style="edgeStyle=orthogonalEdgeStyle;rounded=0;orthogonalLoop=1;jettySize=auto;html=1;" edge="1" parent="1" source="lIGNX0l5fL5t18vdJb74-8" target="lIGNX0l5fL5t18vdJb74-13">
          <mxGeometry relative="1" as="geometry" />
        </mxCell>
        <mxCell id="lIGNX0l5fL5t18vdJb74-8" value="reader = csv.reader(f)" style="whiteSpace=wrap;html=1;rounded=0;" vertex="1" parent="1">
          <mxGeometry x="193" y="380" width="120" height="50" as="geometry" />
        </mxCell>
        <mxCell id="lIGNX0l5fL5t18vdJb74-12" value="" style="edgeStyle=orthogonalEdgeStyle;rounded=0;orthogonalLoop=1;jettySize=auto;html=1;" edge="1" parent="1" source="lIGNX0l5fL5t18vdJb74-10" target="lIGNX0l5fL5t18vdJb74-8">
          <mxGeometry relative="1" as="geometry" />
        </mxCell>
        <mxCell id="lIGNX0l5fL5t18vdJb74-10" value="Initialise reader, csv_data to []" style="rounded=0;whiteSpace=wrap;html=1;" vertex="1" parent="1">
          <mxGeometry x="159.5" y="290" width="187" height="50" as="geometry" />
        </mxCell>
        <mxCell id="lIGNX0l5fL5t18vdJb74-16" value="" style="edgeStyle=orthogonalEdgeStyle;rounded=0;orthogonalLoop=1;jettySize=auto;html=1;" edge="1" parent="1" source="lIGNX0l5fL5t18vdJb74-13" target="lIGNX0l5fL5t18vdJb74-15">
          <mxGeometry relative="1" as="geometry" />
        </mxCell>
        <mxCell id="lIGNX0l5fL5t18vdJb74-13" value="csv_data = np.array([row for row in reader])" style="rounded=0;whiteSpace=wrap;html=1;" vertex="1" parent="1">
          <mxGeometry x="134.5" y="470" width="237" height="50" as="geometry" />
        </mxCell>
        <mxCell id="lIGNX0l5fL5t18vdJb74-19" value="" style="edgeStyle=orthogonalEdgeStyle;rounded=0;orthogonalLoop=1;jettySize=auto;html=1;" edge="1" parent="1" source="lIGNX0l5fL5t18vdJb74-15" target="lIGNX0l5fL5t18vdJb74-18">
          <mxGeometry relative="1" as="geometry" />
        </mxCell>
        <mxCell id="lIGNX0l5fL5t18vdJb74-15" value="row_header = csv_data[0]" style="rounded=0;whiteSpace=wrap;html=1;" vertex="1" parent="1">
          <mxGeometry x="178" y="560" width="150" height="50" as="geometry" />
        </mxCell>
        <mxCell id="lIGNX0l5fL5t18vdJb74-21" value="" style="edgeStyle=orthogonalEdgeStyle;rounded=0;orthogonalLoop=1;jettySize=auto;html=1;" edge="1" parent="1" source="lIGNX0l5fL5t18vdJb74-18" target="lIGNX0l5fL5t18vdJb74-20">
          <mxGeometry relative="1" as="geometry" />
        </mxCell>
        <mxCell id="lIGNX0l5fL5t18vdJb74-18" value="row_data = csv_data[1:].astype(int).tolist()" style="rounded=0;whiteSpace=wrap;html=1;" vertex="1" parent="1">
          <mxGeometry x="138" y="650" width="230" height="50" as="geometry" />
        </mxCell>
        <mxCell id="lIGNX0l5fL5t18vdJb74-58" value="" style="edgeStyle=orthogonalEdgeStyle;rounded=0;orthogonalLoop=1;jettySize=auto;html=1;" edge="1" parent="1" source="lIGNX0l5fL5t18vdJb74-20" target="lIGNX0l5fL5t18vdJb74-57">
          <mxGeometry relative="1" as="geometry" />
        </mxCell>
        <mxCell id="lIGNX0l5fL5t18vdJb74-20" value="year_range = (row_data[0][0], row_data[-1][0])" style="rounded=0;whiteSpace=wrap;html=1;" vertex="1" parent="1">
          <mxGeometry x="128" y="740" width="250" height="50" as="geometry" />
        </mxCell>
        <mxCell id="lIGNX0l5fL5t18vdJb74-41" value="" style="edgeStyle=orthogonalEdgeStyle;rounded=0;orthogonalLoop=1;jettySize=auto;html=1;" edge="1" parent="1" target="lIGNX0l5fL5t18vdJb74-43">
          <mxGeometry relative="1" as="geometry">
            <mxPoint x="605.505" y="66" as="sourcePoint" />
          </mxGeometry>
        </mxCell>
        <mxCell id="lIGNX0l5fL5t18vdJb74-42" value="" style="edgeStyle=orthogonalEdgeStyle;rounded=0;orthogonalLoop=1;jettySize=auto;html=1;" edge="1" parent="1" source="lIGNX0l5fL5t18vdJb74-43" target="lIGNX0l5fL5t18vdJb74-46">
          <mxGeometry relative="1" as="geometry" />
        </mxCell>
        <mxCell id="lIGNX0l5fL5t18vdJb74-43" value="for each i, h in enumerate(row_header)" style="rounded=0;whiteSpace=wrap;html=1;" vertex="1" parent="1">
          <mxGeometry x="523" y="106" width="165" height="40" as="geometry" />
        </mxCell>
        <mxCell id="lIGNX0l5fL5t18vdJb74-44" value="" style="edgeStyle=orthogonalEdgeStyle;rounded=0;orthogonalLoop=1;jettySize=auto;html=1;" edge="1" parent="1" source="lIGNX0l5fL5t18vdJb74-46" target="lIGNX0l5fL5t18vdJb74-49">
          <mxGeometry relative="1" as="geometry" />
        </mxCell>
        <mxCell id="lIGNX0l5fL5t18vdJb74-45" style="edgeStyle=orthogonalEdgeStyle;rounded=0;orthogonalLoop=1;jettySize=auto;html=1;exitX=0;exitY=0.5;exitDx=0;exitDy=0;entryX=0;entryY=0.5;entryDx=0;entryDy=0;" edge="1" parent="1" source="lIGNX0l5fL5t18vdJb74-46" target="lIGNX0l5fL5t18vdJb74-56">
          <mxGeometry relative="1" as="geometry">
            <mxPoint x="497.13" y="326" as="targetPoint" />
            <Array as="points">
              <mxPoint x="497.13" y="226" />
              <mxPoint x="497.13" y="321" />
            </Array>
          </mxGeometry>
        </mxCell>
        <mxCell id="lIGNX0l5fL5t18vdJb74-46" value="i, h in sequence&lt;br&gt;?" style="rhombus;whiteSpace=wrap;html=1;" vertex="1" parent="1">
          <mxGeometry x="565.5" y="186" width="80" height="80" as="geometry" />
        </mxCell>
        <mxCell id="lIGNX0l5fL5t18vdJb74-47" value="" style="edgeStyle=orthogonalEdgeStyle;rounded=0;orthogonalLoop=1;jettySize=auto;html=1;" edge="1" parent="1" source="lIGNX0l5fL5t18vdJb74-49" target="lIGNX0l5fL5t18vdJb74-52">
          <mxGeometry relative="1" as="geometry" />
        </mxCell>
        <mxCell id="lIGNX0l5fL5t18vdJb74-48" style="edgeStyle=orthogonalEdgeStyle;rounded=0;orthogonalLoop=1;jettySize=auto;html=1;exitX=0.5;exitY=0;exitDx=0;exitDy=0;" edge="1" parent="1" source="lIGNX0l5fL5t18vdJb74-49">
          <mxGeometry relative="1" as="geometry">
            <mxPoint x="606.13" y="166" as="targetPoint" />
            <Array as="points">
              <mxPoint x="742.13" y="166" />
            </Array>
          </mxGeometry>
        </mxCell>
        <mxCell id="lIGNX0l5fL5t18vdJb74-49" value="&quot;Private&quot; in h&lt;br&gt;?" style="rhombus;whiteSpace=wrap;html=1;" vertex="1" parent="1">
          <mxGeometry x="681.13" y="186" width="122.5" height="80" as="geometry" />
        </mxCell>
        <mxCell id="lIGNX0l5fL5t18vdJb74-50" value="True" style="text;html=1;strokeColor=none;fillColor=none;align=center;verticalAlign=middle;whiteSpace=wrap;rounded=0;" vertex="1" parent="1">
          <mxGeometry x="628" y="196" width="60" height="30" as="geometry" />
        </mxCell>
        <mxCell id="lIGNX0l5fL5t18vdJb74-51" style="edgeStyle=orthogonalEdgeStyle;rounded=0;orthogonalLoop=1;jettySize=auto;html=1;exitX=1;exitY=0.5;exitDx=0;exitDy=0;entryX=1;entryY=0;entryDx=0;entryDy=0;" edge="1" parent="1" source="lIGNX0l5fL5t18vdJb74-52" target="lIGNX0l5fL5t18vdJb74-54">
          <mxGeometry relative="1" as="geometry">
            <mxPoint x="1017.1300000000001" y="166" as="targetPoint" />
            <Array as="points">
              <mxPoint x="1017.1300000000001" y="226" />
              <mxPoint x="1017.1300000000001" y="166" />
            </Array>
          </mxGeometry>
        </mxCell>
        <mxCell id="lIGNX0l5fL5t18vdJb74-52" value="Add i to temp_list" style="rounded=0;whiteSpace=wrap;html=1;" vertex="1" parent="1">
          <mxGeometry x="847.13" y="200.99" width="150" height="50.02" as="geometry" />
        </mxCell>
        <mxCell id="lIGNX0l5fL5t18vdJb74-53" value="True" style="text;html=1;strokeColor=none;fillColor=none;align=center;verticalAlign=middle;whiteSpace=wrap;rounded=0;" vertex="1" parent="1">
          <mxGeometry x="791.13" y="196" width="60" height="30" as="geometry" />
        </mxCell>
        <mxCell id="lIGNX0l5fL5t18vdJb74-54" value="False" style="text;html=1;strokeColor=none;fillColor=none;align=center;verticalAlign=middle;whiteSpace=wrap;rounded=0;" vertex="1" parent="1">
          <mxGeometry x="681.13" y="166" width="60" height="30" as="geometry" />
        </mxCell>
        <mxCell id="lIGNX0l5fL5t18vdJb74-55" value="False" style="text;html=1;strokeColor=none;fillColor=none;align=center;verticalAlign=middle;whiteSpace=wrap;rounded=0;" vertex="1" parent="1">
          <mxGeometry x="516.1999999999999" y="196" width="60" height="30" as="geometry" />
        </mxCell>
        <mxCell id="lIGNX0l5fL5t18vdJb74-81" style="edgeStyle=orthogonalEdgeStyle;rounded=0;orthogonalLoop=1;jettySize=auto;html=1;exitX=1;exitY=0.5;exitDx=0;exitDy=0;entryX=0.5;entryY=0;entryDx=0;entryDy=0;" edge="1" parent="1" source="lIGNX0l5fL5t18vdJb74-56" target="lIGNX0l5fL5t18vdJb74-64">
          <mxGeometry relative="1" as="geometry">
            <mxPoint x="602.13" y="390" as="targetPoint" />
            <Array as="points">
              <mxPoint x="842.13" y="321" />
              <mxPoint x="842.13" y="390" />
              <mxPoint x="605.13" y="390" />
            </Array>
          </mxGeometry>
        </mxCell>
        <mxCell id="lIGNX0l5fL5t18vdJb74-56" value="sector_indices[0] = temp_list" style="rounded=0;whiteSpace=wrap;html=1;" vertex="1" parent="1">
          <mxGeometry x="531.13" y="296" width="161" height="50.02" as="geometry" />
        </mxCell>
        <mxCell id="lIGNX0l5fL5t18vdJb74-57" value="C" style="ellipse;whiteSpace=wrap;html=1;aspect=fixed;" vertex="1" parent="1">
          <mxGeometry x="220" y="830" width="66" height="66" as="geometry" />
        </mxCell>
        <mxCell id="lIGNX0l5fL5t18vdJb74-59" value="C" style="ellipse;whiteSpace=wrap;html=1;aspect=fixed;" vertex="1" parent="1">
          <mxGeometry x="573" width="66" height="66" as="geometry" />
        </mxCell>
        <mxCell id="lIGNX0l5fL5t18vdJb74-60" value="&lt;font style=&quot;font-size: 10px;&quot;&gt;sector_indices[0] = [i for i, h in enumerate(row_header) if &quot;Private&quot; in h]&lt;/font&gt;" style="text;html=1;strokeColor=none;fillColor=none;align=center;verticalAlign=middle;whiteSpace=wrap;rounded=0;glass=0;dashed=1;" vertex="1" parent="1">
          <mxGeometry x="487.13" y="350" width="325" height="30" as="geometry" />
        </mxCell>
        <mxCell id="lIGNX0l5fL5t18vdJb74-61" value="" style="rounded=0;whiteSpace=wrap;html=1;glass=0;fillColor=none;dashed=1;" vertex="1" parent="1">
          <mxGeometry x="487.13" y="413" width="540" height="270" as="geometry" />
        </mxCell>
        <mxCell id="lIGNX0l5fL5t18vdJb74-63" value="" style="edgeStyle=orthogonalEdgeStyle;rounded=0;orthogonalLoop=1;jettySize=auto;html=1;" edge="1" parent="1" source="lIGNX0l5fL5t18vdJb74-64" target="lIGNX0l5fL5t18vdJb74-67">
          <mxGeometry relative="1" as="geometry" />
        </mxCell>
        <mxCell id="lIGNX0l5fL5t18vdJb74-64" value="for each i, h in enumerate(row_header)" style="rounded=0;whiteSpace=wrap;html=1;" vertex="1" parent="1">
          <mxGeometry x="523" y="433" width="165" height="40" as="geometry" />
        </mxCell>
        <mxCell id="lIGNX0l5fL5t18vdJb74-65" value="" style="edgeStyle=orthogonalEdgeStyle;rounded=0;orthogonalLoop=1;jettySize=auto;html=1;" edge="1" parent="1" source="lIGNX0l5fL5t18vdJb74-67" target="lIGNX0l5fL5t18vdJb74-70">
          <mxGeometry relative="1" as="geometry" />
        </mxCell>
        <mxCell id="lIGNX0l5fL5t18vdJb74-66" style="edgeStyle=orthogonalEdgeStyle;rounded=0;orthogonalLoop=1;jettySize=auto;html=1;exitX=0;exitY=0.5;exitDx=0;exitDy=0;entryX=0;entryY=0.5;entryDx=0;entryDy=0;" edge="1" parent="1" source="lIGNX0l5fL5t18vdJb74-67" target="lIGNX0l5fL5t18vdJb74-77">
          <mxGeometry relative="1" as="geometry">
            <mxPoint x="497.13" y="653" as="targetPoint" />
            <Array as="points">
              <mxPoint x="497.13" y="553" />
              <mxPoint x="497.13" y="648" />
            </Array>
          </mxGeometry>
        </mxCell>
        <mxCell id="lIGNX0l5fL5t18vdJb74-67" value="i, h in sequence&lt;br&gt;?" style="rhombus;whiteSpace=wrap;html=1;" vertex="1" parent="1">
          <mxGeometry x="565.5" y="513" width="80" height="80" as="geometry" />
        </mxCell>
        <mxCell id="lIGNX0l5fL5t18vdJb74-68" value="" style="edgeStyle=orthogonalEdgeStyle;rounded=0;orthogonalLoop=1;jettySize=auto;html=1;" edge="1" parent="1" source="lIGNX0l5fL5t18vdJb74-70" target="lIGNX0l5fL5t18vdJb74-73">
          <mxGeometry relative="1" as="geometry" />
        </mxCell>
        <mxCell id="lIGNX0l5fL5t18vdJb74-69" style="edgeStyle=orthogonalEdgeStyle;rounded=0;orthogonalLoop=1;jettySize=auto;html=1;exitX=0.5;exitY=0;exitDx=0;exitDy=0;" edge="1" parent="1" source="lIGNX0l5fL5t18vdJb74-70">
          <mxGeometry relative="1" as="geometry">
            <mxPoint x="606.13" y="493" as="targetPoint" />
            <Array as="points">
              <mxPoint x="742.13" y="493" />
            </Array>
          </mxGeometry>
        </mxCell>
        <mxCell id="lIGNX0l5fL5t18vdJb74-70" value="&quot;Public&quot; in h&lt;br&gt;?" style="rhombus;whiteSpace=wrap;html=1;" vertex="1" parent="1">
          <mxGeometry x="681.13" y="513" width="122.5" height="80" as="geometry" />
        </mxCell>
        <mxCell id="lIGNX0l5fL5t18vdJb74-71" value="True" style="text;html=1;strokeColor=none;fillColor=none;align=center;verticalAlign=middle;whiteSpace=wrap;rounded=0;" vertex="1" parent="1">
          <mxGeometry x="628" y="523" width="60" height="30" as="geometry" />
        </mxCell>
        <mxCell id="lIGNX0l5fL5t18vdJb74-72" style="edgeStyle=orthogonalEdgeStyle;rounded=0;orthogonalLoop=1;jettySize=auto;html=1;exitX=1;exitY=0.5;exitDx=0;exitDy=0;entryX=1;entryY=0;entryDx=0;entryDy=0;" edge="1" parent="1" source="lIGNX0l5fL5t18vdJb74-73" target="lIGNX0l5fL5t18vdJb74-75">
          <mxGeometry relative="1" as="geometry">
            <mxPoint x="1017.1300000000001" y="493" as="targetPoint" />
            <Array as="points">
              <mxPoint x="1017.1300000000001" y="553" />
              <mxPoint x="1017.1300000000001" y="493" />
            </Array>
          </mxGeometry>
        </mxCell>
        <mxCell id="lIGNX0l5fL5t18vdJb74-73" value="Add i to temp_list" style="rounded=0;whiteSpace=wrap;html=1;" vertex="1" parent="1">
          <mxGeometry x="847.13" y="527.99" width="150" height="50.02" as="geometry" />
        </mxCell>
        <mxCell id="lIGNX0l5fL5t18vdJb74-74" value="True" style="text;html=1;strokeColor=none;fillColor=none;align=center;verticalAlign=middle;whiteSpace=wrap;rounded=0;" vertex="1" parent="1">
          <mxGeometry x="791.13" y="523" width="60" height="30" as="geometry" />
        </mxCell>
        <mxCell id="lIGNX0l5fL5t18vdJb74-75" value="False" style="text;html=1;strokeColor=none;fillColor=none;align=center;verticalAlign=middle;whiteSpace=wrap;rounded=0;" vertex="1" parent="1">
          <mxGeometry x="681.13" y="493" width="60" height="30" as="geometry" />
        </mxCell>
        <mxCell id="lIGNX0l5fL5t18vdJb74-76" value="False" style="text;html=1;strokeColor=none;fillColor=none;align=center;verticalAlign=middle;whiteSpace=wrap;rounded=0;" vertex="1" parent="1">
          <mxGeometry x="516.1999999999999" y="523" width="60" height="30" as="geometry" />
        </mxCell>
        <mxCell id="lIGNX0l5fL5t18vdJb74-86" style="edgeStyle=orthogonalEdgeStyle;rounded=0;orthogonalLoop=1;jettySize=auto;html=1;exitX=1;exitY=0.5;exitDx=0;exitDy=0;entryX=0.5;entryY=0;entryDx=0;entryDy=0;" edge="1" parent="1" source="lIGNX0l5fL5t18vdJb74-77" target="lIGNX0l5fL5t18vdJb74-84">
          <mxGeometry relative="1" as="geometry">
            <mxPoint x="602.13" y="720" as="targetPoint" />
            <Array as="points">
              <mxPoint x="842.13" y="648" />
              <mxPoint x="842.13" y="720" />
              <mxPoint x="605.13" y="720" />
            </Array>
          </mxGeometry>
        </mxCell>
        <mxCell id="lIGNX0l5fL5t18vdJb74-77" value="sector_indices[1] = temp_list" style="rounded=0;whiteSpace=wrap;html=1;" vertex="1" parent="1">
          <mxGeometry x="531.13" y="623" width="161" height="50.02" as="geometry" />
        </mxCell>
        <mxCell id="lIGNX0l5fL5t18vdJb74-78" value="&lt;font style=&quot;font-size: 10px;&quot;&gt;sector_indices[1] = [i for i, h in enumerate(row_header) if &quot;Public&quot; in h]&lt;/font&gt;" style="text;html=1;strokeColor=none;fillColor=none;align=center;verticalAlign=middle;whiteSpace=wrap;rounded=0;glass=0;dashed=1;" vertex="1" parent="1">
          <mxGeometry x="487.13" y="677" width="325" height="30" as="geometry" />
        </mxCell>
        <mxCell id="lIGNX0l5fL5t18vdJb74-88" value="" style="edgeStyle=orthogonalEdgeStyle;rounded=0;orthogonalLoop=1;jettySize=auto;html=1;" edge="1" parent="1" source="lIGNX0l5fL5t18vdJb74-84" target="lIGNX0l5fL5t18vdJb74-87">
          <mxGeometry relative="1" as="geometry" />
        </mxCell>
        <mxCell id="lIGNX0l5fL5t18vdJb74-84" value="years = list(range(year_range[0], year_range[1] + 1))" style="rounded=0;whiteSpace=wrap;html=1;" vertex="1" parent="1">
          <mxGeometry x="460" y="760" width="291" height="50.02" as="geometry" />
        </mxCell>
        <mxCell id="lIGNX0l5fL5t18vdJb74-87" value="END" style="ellipse;whiteSpace=wrap;html=1;rounded=0;" vertex="1" parent="1">
          <mxGeometry x="552.5" y="851" width="106" height="40" as="geometry" />
        </mxCell>
      </root>
    </mxGraphModel>
  </diagram>
</mxfile>
